<svg id="图层_1" data-name="图层 1" xmlns="http://www.w3.org/2000/svg" viewBox="0 0 28 28"><defs><style>.cls-1{fill:#4a80e4;}</style></defs><title>换肤-蓝</title><path class="cls-1" d="M15.19,19.23a2.25,2.25,0,0,1-1.54-.61l-.23-.22a2.24,2.24,0,0,1-.71-1.69,2.42,2.42,0,0,1,.82-1.77l8.54-7.57a1.42,1.42,0,0,1,2.07,2l-7,9a2.45,2.45,0,0,1-1.72.92ZM23.05,8a.47.47,0,0,0-.32.13l-8.54,7.57a1.38,1.38,0,0,0-.48,1,1.23,1.23,0,0,0,.39,1l.23.22a1.26,1.26,0,0,0,1,.33,1.42,1.42,0,0,0,1-.54l7-9a.44.44,0,0,0,0-.6A.43.43,0,0,0,23.05,8Z"/><path class="cls-1" d="M9.29,24.23A20.94,20.94,0,0,1,6.47,24a.51.51,0,0,1-.41-.42.5.5,0,0,1,.27-.52,7.34,7.34,0,0,0,3-3.19h0a2.46,2.46,0,0,1,1.69-1.55,2.7,2.7,0,0,1,2.22.5,3.23,3.23,0,0,1,1.22,2.5,2.75,2.75,0,0,1-1.44,2.12A7.44,7.44,0,0,1,9.29,24.23ZM8,23.18c1.48.11,3.53.09,4.54-.56a1.81,1.81,0,0,0,1-1.34,2.23,2.23,0,0,0-.87-1.67,1.64,1.64,0,0,0-1.33-.3,1.49,1.49,0,0,0-1,1h0A7.52,7.52,0,0,1,8,23.18Z"/><path class="cls-1" d="M15.08,9.92a1.79,1.79,0,1,1,1.79-1.78A1.78,1.78,0,0,1,15.08,9.92Zm0-2.57a.79.79,0,1,0,.79.79A.78.78,0,0,0,15.08,7.35Z"/><path class="cls-1" d="M9.75,11.87a1.93,1.93,0,1,1,1.93-1.93A1.94,1.94,0,0,1,9.75,11.87ZM9.75,9a.93.93,0,1,0,.93.93A.93.93,0,0,0,9.75,9Z"/><path class="cls-1" d="M8.25,17.14a1.93,1.93,0,1,1,1.93-1.93A1.93,1.93,0,0,1,8.25,17.14Zm0-2.86a.93.93,0,0,0,0,1.86.93.93,0,1,0,0-1.86Z"/><path class="cls-1" d="M7.7,22.42a.56.56,0,0,1-.32-.11,10.52,10.52,0,0,1-3.84-8.17A10.35,10.35,0,0,1,13.75,3.68a10.1,10.1,0,0,1,7.74,3.64.51.51,0,0,1-.06.71.49.49,0,0,1-.7-.07,9.15,9.15,0,0,0-7-3.28,9.34,9.34,0,0,0-9.21,9.46A9.52,9.52,0,0,0,8,21.54a.5.5,0,0,1,.07.7A.51.51,0,0,1,7.7,22.42Z"/><path class="cls-1" d="M14.4,24.32l-.53,0a.5.5,0,0,1,.07-1,4.78,4.78,0,0,0,4-1.39,3.13,3.13,0,0,0,.67-2.77,2.2,2.2,0,0,1,1.48-2.72,3.7,3.7,0,0,0,2.52-1.81,4.55,4.55,0,0,0,0-3.33.51.51,0,0,1,.28-.65.5.5,0,0,1,.65.28,5.53,5.53,0,0,1-.06,4.15,4.62,4.62,0,0,1-3.15,2.32,1.2,1.2,0,0,0-.76,1.54,4.1,4.1,0,0,1-.9,3.64A5.59,5.59,0,0,1,14.4,24.32Z"/></svg>